<?xml version="1.0" encoding="UTF-8"?>
<svg width="16px" height="16px" viewBox="0 0 16 16" version="1.1" xmlns="http://www.w3.org/2000/svg" xmlns:xlink="http://www.w3.org/1999/xlink">
    <!-- Generator: Sketch 52.2 (67145) - http://www.bohemiancoding.com/sketch -->
    <title>capital_icon</title>
    <desc>Created with Sketch.</desc>
    <g id="Page-1" stroke="none" stroke-width="1" fill="none" fill-rule="evenodd">
        <g id="资产规模" transform="translate(-147.000000, -147.000000)">
            <g transform="translate(32.000000, 144.000000)" id="资产规模标题">
                <g>
                    <g id="capital_icon" transform="translate(115.000000, 3.000000)">
                        <rect id="Rectangle" fill="#000000" opacity="0" x="0" y="0" width="15.6784689" height="15.6784689"></rect>
                        <path d="M7.62756211,7.17063815 L0.239923322,4.001651 C0.0938563178,3.92899416 0.00150671779,3.77991379 0.00150671779,3.61677402 C0.00150671779,3.45363424 0.0938563178,3.30455387 0.239923322,3.23189703 L7.64755572,0.0829035024 C7.86771741,-0.0276407952 8.12717037,-0.0276407952 8.34733206,0.0829035024 L15.7449676,3.08194496 C15.8910347,3.15460179 15.9833843,3.30368217 15.9833843,3.46682195 C15.9833843,3.62996173 15.8910347,3.7790421 15.7449676,3.85169894 L8.36732566,7.17063815 C8.13302691,7.28073524 7.86186086,7.28073524 7.62756211,7.17063815 Z M15.9149133,11.9391141 C15.9149133,11.6796232 15.7045544,11.4692642 15.4450635,11.4692642 C15.3888139,11.4597563 15.3313674,11.4597563 15.2751178,11.4692642 L8.13739915,14.6482482 C8.05154455,14.6867387 7.95334002,14.6867387 7.86748543,14.6482482 L0.729766752,11.6492067 L0.579814676,11.6492067 C0.353669081,11.6516858 0.16137695,11.814923 0.122213445,12.0376654 C0.0830499386,12.2604079 0.208128722,12.4794466 0.419865799,12.558916 L7.49760364,15.5579574 C7.66317175,15.6366274 7.84412672,15.6775984 8.0274343,15.6779191 C8.19741106,15.6835278 8.3660086,15.6456794 8.51727773,15.5679542 L15.6050124,12.4489511 C15.8142527,12.3716872 15.9426634,12.1604309 15.9149133,11.9391141 Z" id="Shape" fill="#6E5AC8" fill-rule="nonzero"></path>
                        <path d="M15.9948878,7.69047199 C15.9975763,7.56413712 15.9492639,7.44204461 15.8608569,7.35175659 C15.7724499,7.26146857 15.6514014,7.21059676 15.5250379,7.21062536 C15.4476659,7.21046174 15.3716841,7.23118406 15.3051082,7.27060619 L8.07741832,10.4995742 C7.99420091,10.5340091 7.90071881,10.5340091 7.8175014,10.4995742 L0.709773152,7.28060299 L0.649792322,7.28060299 C0.606657417,7.27494746 0.562968749,7.27494746 0.519833845,7.28060299 C0.306020699,7.28050401 0.119103244,7.42477779 0.0650364322,7.63164212 C0.01096962,7.83850645 0.103389445,8.05578883 0.289907338,8.16032182 L7.44761961,11.3992866 C7.61318772,11.4779566 7.79414269,11.5189276 7.97745027,11.5192483 C8.14996589,11.5183579 8.3203298,11.4808778 8.47729052,11.4092834 L15.7549645,8.16032182 C15.9215832,8.06566297 16.0159068,7.88094592 15.9948878,7.69047199 Z" id="Path" fill="#6E5AC8"></path>
                    </g>
                </g>
            </g>
        </g>
    </g>
</svg>