<?xml version="1.0" encoding="UTF-8"?>
<svg width="14px" height="16px" viewBox="0 0 14 16" version="1.1" xmlns="http://www.w3.org/2000/svg" xmlns:xlink="http://www.w3.org/1999/xlink">
    <!-- Generator: Sketch 52.2 (67145) - http://www.bohemiancoding.com/sketch -->
    <title>date_choose_icon</title>
    <desc>Created with Sketch.</desc>
    <g id="Page-1" stroke="none" stroke-width="1" fill="none" fill-rule="evenodd">
        <g id="各项指标" transform="translate(-229.000000, -38.000000)">
            <g id="Group-10" transform="translate(132.000000, 36.000000)">
                <g id="date_choose_icon" transform="translate(96.000000, 2.000000)">
                    <rect id="Rectangle" fill="#000000" opacity="0" x="0" y="0" width="16" height="16"></rect>
                    <path d="M3.008,15.8222188 C1.984,15.8222188 1.15910938,14.9973281 1.15910938,13.9733281 L1.15910938,3.02221875 C1.15910938,1.99821875 1.984,1.17332813 3.008,1.17332813 L4.14578125,1.17332813 L4.14578125,0.17778125 L4.85689063,0.17778125 L4.85689063,1.17332813 L11.1146719,1.17332813 L11.1146719,0.17778125 L11.8257813,0.17778125 L11.8257813,1.17332813 L12.9635625,1.17332813 C13.9875625,1.17332813 14.8124531,1.99821875 14.8124531,3.02221875 L14.8124531,13.9733281 C14.8124531,14.9973281 13.9875625,15.8222188 12.9635625,15.8222188 L3.00801562,15.8222188 L3.008,15.8222188 Z M1.87021875,13.9733281 C1.87021875,14.5991094 2.38221875,15.1111094 3.008,15.1111094 L12.9635469,15.1111094 C13.5893281,15.1111094 14.1013281,14.5991094 14.1013281,13.9733281 L14.1013281,5.86665625 L1.87021875,5.86665625 L1.87021875,13.9733281 Z M3.008,1.88445313 C2.38221875,1.88445313 1.87021875,2.39645312 1.87021875,3.02223438 L1.87021875,5.1555625 L14.1013281,5.1555625 L14.1013281,3.02223438 C14.1013281,2.39645313 13.5893281,1.88445313 12.9635469,1.88445313 L11.8257656,1.88445313 L11.8257656,2.88 L11.1146563,2.88 L11.1146563,1.88445313 L4.856875,1.88445313 L4.856875,2.88 L4.14576563,2.88 L4.14576563,1.88445313 L3.00798438,1.88445313 L3.008,1.88445313 Z" id="Shape" fill="#F4A100" fill-rule="nonzero"></path>
                    <path d="M4.14578125,8.14221875 L11.8257812,8.14221875 L11.8257812,8.85332812 L4.14578125,8.85332812 L4.14578125,8.14221875 Z M4.14578125,11.1573281 L11.8257812,11.1573281 L11.8257812,11.8684375 L4.14578125,11.8684375 L4.14578125,11.1573281 Z" id="Shape" fill="#F4A100" fill-rule="nonzero"></path>
                </g>
            </g>
        </g>
    </g>
</svg>