<?xml version="1.0" encoding="UTF-8"?>
<svg width="56px" height="56px" viewBox="0 0 56 56" version="1.1" xmlns="http://www.w3.org/2000/svg" xmlns:xlink="http://www.w3.org/1999/xlink">
    <!-- Generator: Sketch 52.2 (67145) - http://www.bohemiancoding.com/sketch -->
    <title>fingerprint</title>
    <desc>Created with Sketch.</desc>
    <g id="Page-1" stroke="none" stroke-width="1" fill="none" fill-rule="evenodd">
        <g id="指纹解锁" transform="translate(-160.000000, -265.000000)" fill="#E9AB3A">
            <g id="fingerprint" transform="translate(160.000000, 265.000000)">
                <path d="M1.3077095,34.1387025 C0.963575419,34.1387025 0.65698324,33.8944072 0.588156425,33.5498881 C-0.0500558659,30.3865772 -0.143910615,27.1856823 0.312849162,24.0286353 C0.750837989,20.9780761 1.68938547,18.0277405 3.0972067,15.2715884 C3.2849162,14.9082774 3.72290503,14.7642058 4.08581006,14.9521253 C4.44871508,15.1400447 4.5926257,15.5785235 4.4049162,15.9418345 C3.06592179,18.553915 2.17743017,21.347651 1.76446927,24.2353468 C1.33273743,27.2295302 1.4203352,30.2612975 2.02726257,33.255481 C2.10860335,33.6563758 1.85206704,34.0447427 1.45162011,34.1199105 C1.40156425,34.1324385 1.35150838,34.1387025 1.3077095,34.1387025 M6.00670391,12.6782998 C5.85653631,12.6782998 5.70636872,12.6344519 5.57497207,12.5342282 C5.24960894,12.2961969 5.17452514,11.8326622 5.4122905,11.5069351 C9.54189944,5.8442953 15.5986592,1.9606264 22.4688268,0.576286353 C28.5631285,-0.651454139 34.726257,0.144071588 40.2949721,2.87516779 C40.6578771,3.05682327 40.8080447,3.49530201 40.6328492,3.85861298 C40.4513966,4.22192394 40.0134078,4.37225951 39.6505028,4.19686801 C34.3758659,1.6098434 28.5318436,0.851901566 22.756648,2.01700224 C16.2493855,3.33243848 10.5117318,7.00939597 6.60111732,12.3713647 C6.4572067,12.5718121 6.23195531,12.6782998 6.00670391,12.6782998 M54.6797765,23.3646532 C54.3356425,23.3646532 54.0290503,23.1203579 53.9602235,22.7758389 C52.6149721,16.0796421 48.7982123,10.2353468 43.2169832,6.31409396 C42.8853631,6.08232662 42.8040223,5.61879195 43.0355307,5.28680089 C43.2670391,4.95480984 43.7300559,4.87337808 44.061676,5.10514541 C49.9557542,9.24563758 53.9789944,15.41566 55.4055866,22.4814318 C55.4869274,22.8823266 55.2303911,23.2706935 54.8299441,23.3458613 C54.7736313,23.3583893 54.7235754,23.3646532 54.6797765,23.3646532" id="形状" fill-rule="nonzero"></path>
                <path d="M55.2303911,29.2966443 L55.2178771,29.2966443 C54.8111732,29.2903803 54.492067,28.9521253 54.498324,28.5449664 C54.5358659,26.61566 54.3606704,24.6675615 53.9727374,22.7695749 C53.8913966,22.3686801 54.147933,21.9803132 54.5483799,21.9051454 C54.9488268,21.8237136 55.3367598,22.0805369 55.4118436,22.4814318 C55.8185475,24.49217 56,26.5404922 55.9624581,28.5762864 C55.9562011,28.9771812 55.630838,29.2966443 55.2303911,29.2966443 M1.58301676,35.2975391 C1.25139665,35.2975391 0.951061453,35.0720358 0.86972067,34.7400447 C0.769608939,34.3391499 0.682011173,33.938255 0.600670391,33.5498881 C0.519329609,33.1489933 0.775865922,32.7606264 1.17631285,32.6854586 C1.57675978,32.6040268 1.96469274,32.8608501 2.03977654,33.261745 C2.11486034,33.6313199 2.2024581,34.0134228 2.29631285,34.3955257 C2.39642458,34.7901566 2.15240223,35.1910515 1.75821229,35.2850112 C1.69564246,35.2912752 1.63932961,35.2975391 1.58301676,35.2975391 M20.9671508,55.0854586 C20.7919553,55.0854586 20.6230168,55.0228188 20.4791061,54.9038031 C20.172514,54.6344519 20.1412291,54.1709172 20.4102793,53.8639821 C23.3886034,50.4689038 25.5973184,46.3847875 26.7986592,42.0438479 C28.0563128,37.4961969 28.2189944,32.8232662 27.2804469,28.1628635 C27.1991061,27.7619687 27.4556425,27.3736018 27.8560894,27.298434 C28.2565363,27.2170022 28.6444693,27.4738255 28.7195531,27.8747204 C29.7081564,32.7668904 29.5329609,37.6653244 28.2127374,42.4384787 C26.9550838,46.9923937 24.64,51.2769575 21.5115084,54.8411633 C21.3738547,54.9977629 21.1673743,55.0854586 20.9671508,55.0854586" id="形状" fill-rule="nonzero"></path>
                <path d="M17.4444693,53.8765101 C17.2567598,53.8765101 17.0753073,53.8076063 16.9313966,53.6697987 C16.6435754,53.3879195 16.6373184,52.9181208 16.9188827,52.6299776 C19.427933,50.055481 21.3613408,47.0550336 22.6627933,43.7038031 C22.8129609,43.3279642 23.2384358,43.1400447 23.6138547,43.2841163 C23.9892737,43.4344519 24.1769832,43.8604027 24.0330726,44.2362416 C22.6565363,47.7691275 20.6167598,50.9387025 17.9700559,53.6510067 C17.8261453,53.8013423 17.6384358,53.8765101 17.4444693,53.8765101" id="路径"></path>
                <path d="M24.7776536,55.8183445 C24.6212291,55.8183445 24.4585475,55.7682327 24.3271508,55.661745 C24.0080447,55.4111857 23.9517318,54.947651 24.2020112,54.6281879 C30.2087151,46.9360179 32.5488268,37.0389262 30.621676,27.4863535 L30.5716201,27.2420582 C30.3901676,26.6407159 30.0147486,26.1270694 29.482905,25.7762864 C28.8822346,25.3816555 28.1689385,25.2375839 27.4681564,25.3816555 C26.135419,25.6510067 25.2344134,26.8662192 25.3157542,28.1879195 L25.390838,28.5449664 C26.1541899,32.3472036 26.135419,36.1807606 25.3282682,39.9391499 C25.2406704,40.3337808 24.8527374,40.590604 24.4585475,40.5029083 C24.0643575,40.4152125 23.8078212,40.0268456 23.895419,39.6322148 C24.6087151,36.3060403 24.6712849,32.917226 24.0831285,29.5472036 L24.0706145,29.5472036 L23.9267039,28.8393736 C23.4762011,26.590604 24.9340782,24.3919463 27.1803352,23.9409396 C28.2690503,23.7217002 29.3765363,23.9409396 30.3025698,24.5548098 C31.2286034,25.1686801 31.8605587,26.1082774 32.0795531,27.1982103 L32.2109497,27.8371365 L32.1921788,27.8434004 C33.975419,37.6214765 31.5039106,47.6814318 25.3658101,55.5427293 C25.2093855,55.7181208 24.996648,55.8183445 24.7776536,55.8183445 M14.2283799,52.2604027 C14.0344134,52.2604027 13.8341899,52.1852349 13.6902793,52.0286353 C13.4149721,51.7342282 13.427486,51.2644295 13.7278212,50.9888143 C19.1964246,45.8711409 21.8618994,38.3919463 20.8607821,30.9941834 C20.8044693,30.5932886 21.0860335,30.2237136 21.4927374,30.1673378 C21.8931844,30.110962 22.2623464,30.3928412 22.3186592,30.8 C23.3823464,38.6738255 20.547933,46.6228188 14.7351955,52.0662192 C14.5912849,52.1977629 14.4098324,52.2604027 14.2283799,52.2604027" id="形状" fill-rule="nonzero"></path>
                <path d="M35.4145251,34.7463087 C35.0078212,34.7463087 34.6824581,34.4205817 34.6824581,34.0134228 C34.6762011,31.6143177 34.4321788,29.1901566 33.9503911,26.8161074 L33.8940782,26.5342282 C33.5249162,25.0621924 32.6364246,23.790604 31.36,22.9449664 C30.0084916,22.042953 28.381676,21.7234899 26.7924022,22.049217 C24.4022346,22.5315436 22.5313966,24.3919463 22.037095,26.7785235 C21.9557542,27.1794183 21.5615642,27.4299776 21.1673743,27.3485459 C20.7669274,27.2671141 20.516648,26.8724832 20.5979888,26.4778523 C21.2174302,23.5087248 23.532514,21.2035794 26.504581,20.6085011 C28.4817877,20.2076063 30.4965363,20.6022371 32.1796648,21.7234899 C33.8627933,22.8447427 35.0078212,24.5485459 35.4020112,26.5279642 L35.5208939,27.1167785 L35.5083799,27.1230425 C35.9338547,29.403132 36.1465922,31.7208054 36.1528492,34.0196868 C36.1528492,34.4143177 35.827486,34.7463087 35.4145251,34.7463087 Z M28.8634637,55.993736 C28.7195531,55.993736 28.5756425,55.9498881 28.4505028,55.8621924 C28.1126257,55.6304251 28.0312849,55.1731544 28.2565363,54.8411633 C31.6353073,49.8988814 33.7751955,44.1610738 34.4509497,38.2478747 C34.4947486,37.8469799 34.8639106,37.5525727 35.2643575,37.6026846 C35.6648045,37.6465324 35.9588827,38.0161074 35.9088268,38.4170022 C35.2080447,44.5682327 32.9805587,50.5378076 29.4703911,55.6742729 C29.3264804,55.8809843 29.0949721,55.993736 28.8634637,55.993736 Z" id="形状" fill-rule="nonzero"></path>
                <path d="M11.3251397,50.2997763 C11.1186592,50.2997763 10.9121788,50.2120805 10.7682682,50.042953 C10.5054749,49.7360179 10.5367598,49.2724832 10.843352,49.003132 C13.44,46.7543624 15.4109497,43.8478747 16.5497207,40.609396 C17.6446927,37.4961969 17.932514,34.1449664 17.4006704,30.8814318 L17.3944134,30.8814318 L17.2505028,30.1798658 C16.6686034,27.304698 17.2442458,24.3794183 18.8648045,21.9427293 C20.4853631,19.4997763 22.9568715,17.839821 25.8225698,17.2635347 C26.8174302,17.0630872 27.8373184,17.0004474 28.8446927,17.0756152 C29.2513966,17.1069351 29.5517318,17.4639821 29.5204469,17.864877 C29.489162,18.2720358 29.1387709,18.5727069 28.732067,18.541387 C27.8623464,18.4724832 26.9801117,18.5288591 26.116648,18.7042506 C23.6326257,19.2053691 21.4927374,20.646085 20.0911732,22.757047 C18.8022346,24.6988814 18.276648,26.9977629 18.5894972,29.2903803 L18.7083799,29.8854586 C19.4654749,33.6313199 19.1964246,37.5087248 17.932514,41.0979866 C16.7061453,44.5807606 14.5850279,47.7002237 11.8006704,50.1181208 C11.6630168,50.2371365 11.4940782,50.2997763 11.3251397,50.2997763 M33.1995531,55.4988814 C33.0744134,55.4988814 32.9430168,55.4675615 32.8303911,55.3986577 C32.48,55.1919463 32.3611173,54.7409396 32.5675978,54.3901566 C37.5606704,45.864877 39.2375419,35.8299776 37.2853631,26.1395973 L37.2227933,25.8201342 C36.6096089,23.2331096 34.9389944,21.01566 32.6051397,19.7190157 C32.2484916,19.5185682 32.123352,19.0738255 32.3235754,18.7167785 C32.5237989,18.3597315 32.9680447,18.2344519 33.3246927,18.4348993 C36.1278212,20.0008949 38.0987709,22.7006711 38.7369832,25.8514541 L38.8621229,26.4778523 L38.8496089,26.4841163 C40.676648,36.3373602 38.9059218,46.4912752 33.8377654,55.1418345 C33.7001117,55.3673378 33.4560894,55.4988814 33.1995531,55.4988814" id="形状" fill-rule="nonzero"></path>
                <path d="M8.74100559,48.0196868 C8.52826816,48.0196868 8.31553073,47.9257271 8.17162011,47.7503356 C7.9150838,47.4371365 7.95888268,46.9736018 8.27173184,46.7167785 C10.449162,44.9252796 12.1385475,42.5950783 13.1584358,39.9642058 C13.3023464,39.5883669 13.7340782,39.4004474 14.1094972,39.544519 C14.4849162,39.6948546 14.6726257,40.1208054 14.5287151,40.4966443 C13.4149721,43.3592841 11.575419,45.9024609 9.20402235,47.8505593 C9.06636872,47.963311 8.90368715,48.0196868 8.74100559,48.0196868 M41.6402235,42 C41.6026816,42 41.5588827,41.993736 41.5213408,41.987472 C41.1208939,41.9185682 40.8518436,41.5427293 40.9144134,41.1418345 C41.7716201,35.9489933 41.6715084,30.6684564 40.6203352,25.4630872 L40.5827933,25.2626398 C39.8694972,21.9677852 37.9360894,19.1364653 35.1204469,17.2635347 C32.2547486,15.3592841 28.8134078,14.682774 25.4408939,15.3655481 C22.0683799,16.0483221 19.1588827,18.0026846 17.2505028,20.8715884 C15.4672626,23.5588367 14.7664804,26.7409396 15.2357542,29.9042506 L15.3671508,30.5557047 C15.7300559,32.3472036 15.8113966,34.1700224 15.6174302,35.9677852 C15.5736313,36.3749441 15.2107263,36.6630872 14.8102793,36.6192394 C14.4035754,36.5753915 14.1157542,36.2120805 14.1595531,35.8111857 C14.3097207,34.4017897 14.2784358,32.9798658 14.0531844,31.5704698 L13.9092737,30.8501119 C13.1521788,27.0854586 13.9030168,23.2519016 16.0241341,20.0572707 C18.1452514,16.8626398 21.3988827,14.682774 25.1530726,13.9248322 C28.9135196,13.1668904 32.7427933,13.9185682 35.9338547,16.0420582 C39.1249162,18.1655481 41.3023464,21.4102908 42.0594413,25.1749441 L42.1282682,25.5194631 C43.1481564,30.793736 43.2294972,36.1306488 42.3597765,41.3861298 C42.3097207,41.7431767 41.9968715,42 41.6402235,42 M37.7608939,54.1897092 C37.6545251,54.1897092 37.5418994,54.1646532 37.4417877,54.1145414 C37.0788827,53.9391499 36.9224581,53.4944072 37.1039106,53.1310962 C38.3240223,50.6255034 39.3063687,47.9946309 40.0196648,45.3136465 C40.1260335,44.9190157 40.5264804,44.6872483 40.9206704,44.793736 C41.3148603,44.9002237 41.5463687,45.3011186 41.44,45.6957494 C40.701676,48.4706935 39.6817877,51.1892617 38.4241341,53.7762864 C38.2927374,54.0393736 38.0299441,54.1897092 37.7608939,54.1897092" id="形状" fill-rule="nonzero"></path>
                <path d="M42.4911732,51.8219239 C42.4035754,51.8219239 42.3159777,51.803132 42.2283799,51.7718121 C41.8467039,51.6277405 41.6589944,51.2017897 41.802905,50.8196868 C44.9501676,42.5888143 45.7072626,33.6563758 43.9928492,24.9744966 L43.9553073,24.7865772 C43.4860335,22.4626398 42.547486,20.314094 41.1646927,18.4161074 C40.9269274,18.0903803 40.9957542,17.6268456 41.3273743,17.3888143 C41.6527374,17.150783 42.1157542,17.2196868 42.3535196,17.5516779 C43.8051397,19.5436242 44.806257,21.7798658 45.3381006,24.1977629 L45.4006704,24.498434 C47.2151955,33.5123043 46.4455866,42.7955257 43.1794413,51.3458613 C43.0668156,51.6402685 42.7915084,51.8219239 42.4911732,51.8219239 M38.7870391,15.5722595 C38.6243575,15.5722595 38.455419,15.5158837 38.3240223,15.403132 C34.5260335,12.2899329 29.5892737,11.0559284 24.7776536,12.0268456 C23.5387709,12.2774049 22.3374302,12.6657718 21.1986592,13.1919463 C20.8294972,13.3610738 20.3915084,13.1982103 20.2225698,12.8286353 C20.0536313,12.4590604 20.2163128,12.0205817 20.5854749,11.8514541 C21.8243575,11.2814318 23.138324,10.855481 24.4898324,10.5861298 C29.7331844,9.52751678 35.1141899,10.8680089 39.2563128,14.2630872 C39.569162,14.5199105 39.6192179,14.9834452 39.3564246,15.2966443 C39.212514,15.4782998 38.9997765,15.5722595 38.7870391,15.5722595 M6.48223464,45.4639821 C6.26949721,45.4639821 6.05675978,45.3700224 5.90659218,45.1883669 C5.65005587,44.8689038 5.70011173,44.4053691 6.01921788,44.1548098 C9.64201117,41.2357942 11.4064804,36.6693512 10.6994413,32.1091723 L10.5805587,31.5328859 C9.27284916,25.0308725 11.6567598,18.3910515 16.8,14.2067114 C17.1128492,13.9498881 17.5758659,14 17.8324022,14.3131991 C18.0889385,14.6263982 18.0388827,15.0899329 17.7260335,15.3467562 C13.1772067,19.0487696 10.9810056,24.836689 11.9007821,30.5932886 L12.0321788,31.2384787 C13.0958659,36.5315436 11.1436872,41.9185682 6.93899441,45.3011186 C6.80759777,45.4076063 6.6449162,45.4639821 6.48223464,45.4639821" id="形状" fill-rule="nonzero"></path>
                <path d="M4.56134078,42.6326622 C4.35486034,42.6326622 4.14837989,42.5449664 3.99821229,42.3695749 C3.73541899,42.0563758 3.77296089,41.5928412 4.08581006,41.3297539 C6.61363128,39.1812081 7.84,35.8863535 7.33944134,32.6290828 L7.25184358,32.190604 C7.03284916,31.0944072 6.89519553,29.9668904 6.84513966,28.8456376 C6.82636872,28.4384787 7.14547486,28.0939597 7.54592179,28.0814318 C7.9526257,28.0626398 8.29675978,28.3821029 8.30927374,28.7829978 C8.34681564,29.6098434 8.42815642,30.442953 8.56581006,31.2572707 L8.6972067,31.8961969 C9.48558659,35.8174497 8.08402235,39.8577181 5.03061453,42.4510067 C4.89921788,42.5762864 4.73027933,42.6326622 4.56134078,42.6326622 M48.4791061,27.3548098 C48.1224581,27.3548098 47.8096089,27.0917226 47.7532961,26.7284116 C47.6406704,25.9704698 47.5092737,25.212528 47.3653631,24.4733781 L47.2902793,24.1225951 C46.2516201,18.9610738 43.2670391,14.5136465 38.8871508,11.6008949 C34.5072626,8.68814318 29.2576536,7.65458613 24.1018994,8.69440716 C20.1349721,9.49619687 16.5684916,11.4568233 13.7841341,14.3758389 C11.0623464,17.2259508 9.26659218,20.7776286 8.59709497,24.6487696 C8.52826816,25.0496644 8.14659218,25.3190157 7.74614525,25.2501119 C7.34569832,25.1812081 7.07664804,24.7991051 7.14547486,24.3982103 C7.86502793,20.2389262 9.79217877,16.4241611 12.7204469,13.3610738 C15.7175419,10.2290828 19.5530726,8.11812081 23.8140782,7.25995526 C29.3515084,6.13870246 34.9953073,7.24742729 39.7068156,10.3794183 C44.2556425,13.4049217 47.409162,17.9776286 48.6167598,23.2957494 L48.6230168,23.2957494 L48.7356425,23.8281879 C48.910838,24.7051454 49.0735196,25.6071588 49.2049162,26.5091723 C49.267486,26.9100671 48.9859218,27.285906 48.5854749,27.3485459 C48.547933,27.3548098 48.516648,27.3548098 48.4791061,27.3548098 M47.3153073,47.950783 C47.2527374,47.950783 47.1901676,47.944519 47.1275978,47.9257271 C46.7334078,47.8192394 46.5018994,47.4183445 46.6082682,47.0237136 C48.0035754,41.7807606 48.541676,36.3749441 48.1975419,30.9565996 C48.172514,30.5494407 48.4791061,30.1986577 48.8858101,30.1736018 C49.292514,30.1485459 49.642905,30.455481 49.667933,30.8626398 C50.018324,36.4375839 49.4677095,42 48.0286034,47.3995526 C47.9410056,47.7315436 47.6406704,47.950783 47.3153073,47.950783" id="形状" fill-rule="nonzero"></path>
                <path d="M2.95329609,39.4630872 C2.77184358,39.4630872 2.59664804,39.4004474 2.45273743,39.2689038 C2.15240223,38.9932886 2.13988827,38.5297539 2.41519553,38.2290828 C3.68536313,36.8572707 4.26100559,34.9655481 3.97318436,33.1239374 L3.91687151,32.8733781 C2.62167598,26.4340045 3.91061453,19.8756152 7.5396648,14.4071588 C11.1687151,8.93870246 16.7124022,5.21163311 23.138324,3.91498881 C25.8413408,3.37002237 28.5818994,3.27606264 31.2849162,3.64563758 C31.6853631,3.70201342 31.9669274,4.07158837 31.9168715,4.47248322 C31.8605587,4.87337808 31.4913966,5.15525727 31.0909497,5.10514541 C28.5506145,4.7606264 25.9727374,4.84832215 23.4324022,5.36196868 C17.3818994,6.57718121 12.1760894,10.0787472 8.75977654,15.2214765 C5.42480447,20.2451902 4.19217877,26.252349 5.28089385,32.1718121 L5.36849162,32.5789709 C5.85027933,34.9592841 5.14949721,37.446085 3.49765363,39.2250559 C3.34748603,39.3879195 3.15351955,39.4630872 2.95329609,39.4630872 M52.0205587,41.5615213 C51.9892737,41.5615213 51.9579888,41.5615213 51.9267039,41.5552573 C51.526257,41.5051454 51.2384358,41.1355705 51.2884916,40.7346756 C51.9830168,35.1472036 51.7953073,29.4908277 50.7191061,23.9158837 L50.6189944,23.446085 C48.9671508,15.2402685 42.9854749,8.55033557 35.0140782,5.99463087 C34.6261453,5.86935123 34.4134078,5.45592841 34.5385475,5.06756152 C34.6636872,4.67919463 35.076648,4.46621924 35.464581,4.59149888 C43.7175419,7.24116331 49.9620112,14.0563758 51.907933,22.4689038 L51.9204469,22.4689038 L52.0643575,23.1579418 C53.2469274,29.039821 53.4784358,35.01566 52.7401117,40.9225951 C52.7025698,41.285906 52.3897207,41.5615213 52.0205587,41.5615213" id="形状" fill-rule="nonzero"></path>
            </g>
        </g>
    </g>
</svg>