<?xml version="1.0" encoding="UTF-8"?>
<svg width="375px" height="168px" viewBox="0 0 375 168" version="1.1" xmlns="http://www.w3.org/2000/svg" xmlns:xlink="http://www.w3.org/1999/xlink">
    <!-- Generator: Sketch 52.2 (67145) - http://www.bohemiancoding.com/sketch -->
    <title>header</title>
    <desc>Created with Sketch.</desc>
    <defs>
        <linearGradient x1="50%" y1="1.19219653%" x2="50%" y2="97.308526%" id="linearGradient-1">
            <stop stop-color="#434A59" offset="0%"></stop>
            <stop stop-color="#20242D" offset="100%"></stop>
        </linearGradient>
        <linearGradient x1="50%" y1="-2.48949813e-15%" x2="50%" y2="100%" id="linearGradient-2">
            <stop stop-color="#333948" offset="0%"></stop>
            <stop stop-color="#20242D" offset="100%"></stop>
        </linearGradient>
        <linearGradient x1="-2.22044605e-14%" y1="50%" x2="100%" y2="50%" id="linearGradient-3">
            <stop stop-color="#394051" offset="0%"></stop>
            <stop stop-color="#20242D" offset="100%"></stop>
        </linearGradient>
    </defs>
    <g id="Page-1" stroke="none" stroke-width="1" fill="none" fill-rule="evenodd">
        <g id="我的">
            <g id="header">
                <g id="Group-6">
                    <rect id="Rectangle" fill="url(#linearGradient-1)" fill-rule="nonzero" x="0" y="0" width="375" height="168"></rect>
                    <path d="M120.085445,-9.73955363e-07 C123.903897,9.76125833 126,20.3858436 126,31.5 C126,79.2726309 87.2726309,118 39.5,118 C25.269149,118 11.840945,114.56346 -9.3058063e-06,108.474982 L7.81597009e-14,0 L120.085452,0 Z" id="Combined-Shape" fill="url(#linearGradient-2)" fill-rule="nonzero"></path>
                    <path d="M277.628918,0 L375,0 L375,159.768264 C368.231643,161.230168 361.205724,162 354,162 C299.32381,162 255,117.67619 255,63 C255,39.0666747 263.492718,17.1169298 277.628918,1.77635684e-15 Z" id="Combined-Shape" fill="url(#linearGradient-3)" fill-rule="nonzero"></path>
                </g>
            </g>
        </g>
    </g>
</svg>