<?xml version="1.0" encoding="UTF-8"?>
<svg width="16px" height="12px" viewBox="0 0 16 12" version="1.1" xmlns="http://www.w3.org/2000/svg" xmlns:xlink="http://www.w3.org/1999/xlink">
    <!-- Generator: Sketch 52.2 (67145) - http://www.bohemiancoding.com/sketch -->
    <title>income_icon</title>
    <desc>Created with Sketch.</desc>
    <g id="Page-1" stroke="none" stroke-width="1" fill="none" fill-rule="evenodd">
        <g id="资产规模" transform="translate(-82.000000, -404.000000)">
            <g id="收入" transform="translate(32.000000, 400.000000)">
                <g id="收入标题">
                    <g id="income_icon" transform="translate(50.000000, 2.000000)">
                        <rect id="Rectangle" fill="#000000" opacity="0" x="0" y="0" width="16" height="16"></rect>
                        <path d="M7.48417621,8.84487191 C7.35834091,8.91918876 7.24351451,8.99692402 7.12042471,9.05797097 C7.03571804,9.10001476 6.9497732,9.1380749 6.86294011,9.17306652 C6.9497732,9.13807488 7.03571803,9.10001476 7.12045162,9.05797097 C7.24351451,8.99692402 7.3583409,8.91921568 7.48417621,8.84487191 Z M5.58504562,9.50284922 C5.76498337,9.47318708 5.94400596,9.43986428 6.12106362,9.39959699 C5.94397904,9.43986429 5.76492954,9.47318708 5.5850187,9.50284922 C5.35768074,9.54031719 5.12800104,9.56596874 4.89845591,9.58680223 C4.80214817,9.59552322 4.70570584,9.60435188 4.60920968,9.61207695 C4.70573275,9.60435188 4.80217508,9.59552322 4.89848283,9.58680223 C5.12802797,9.56599566 5.35770767,9.5403441 5.58504562,9.50284922 Z M3.18970677,11.4998218 C2.89203562,11.4852868 2.59412224,11.4598237 2.2985775,11.4217097 C2.20749159,11.409974 2.11656718,11.3965426 2.0257235,11.3823576 C2.11654025,11.3965426 2.20746467,11.409974 2.29855058,11.4217366 C2.59409532,11.4598237 2.89198178,11.4852868 3.18970677,11.4998218 C3.55262384,11.5175599 3.9159716,11.5209244 4.27870025,11.5027826 C3.91599851,11.5209244 3.55262384,11.5175599 3.18970677,11.4998218 Z M0.394386603,10.8961353 C0.265590474,10.8205803 0.145865246,10.7332089 0.0650345795,10.6030939 C0.0232599479,10.5358561 0.00167280168,10.4639348 0.00191505899,10.3832118 C0.00331471981,9.88703045 0.00258797128,9.39084907 0.00272255607,8.8946677 C0.00272255607,8.87851771 0.0043644742,8.86236774 0.00576413502,8.83668926 C0.00576413502,8.83668926 0.00573722274,8.83668926 0.00573722274,8.83666235 C0.00433756192,8.86236774 0.00269564379,8.87851773 0.00269564379,8.89466771 C0.00256105899,9.39084908 0.00331473151,9.88703046 0.00188814671,10.3832118 C0.0016459011,10.4639348 0.0232330473,10.5358561 0.0650076672,10.6030939 C0.145865258,10.7332089 0.265563562,10.8205803 0.394359691,10.8961354 C0.715932813,11.0847672 1.06794865,11.1944794 1.42890081,11.2719993 C1.4748206,11.2818508 1.52092881,11.2909217 1.5670101,11.300208 C1.52095573,11.2909217 1.47484752,11.2818508 1.42892773,11.2719993 C1.06794865,11.1944794 0.715959726,11.0847672 0.394386603,10.8961353 Z M9.48324826,13.5543152 C9.23249283,13.473673 8.98787439,13.378092 8.77135692,13.2237519 C8.65470019,13.1405795 8.5499137,13.0454292 8.50579733,12.9023941 C8.49454617,12.8659221 8.48808618,12.8264085 8.48800543,12.7882676 C8.48682111,12.2869721 8.4871441,11.7856496 8.48727868,11.2843541 C8.48727868,11.2715687 8.48959352,11.2588102 8.49180068,11.2363886 C8.49180068,11.2363886 8.49177377,11.2363886 8.49177377,11.2363617 C8.48959353,11.2588102 8.4872787,11.2715956 8.48725177,11.2843541 C8.48711719,11.7856496 8.48679419,12.2869721 8.48797852,12.7882676 C8.48805927,12.8264085 8.49451927,12.8659221 8.50577042,12.9023942 C8.54991371,13.0454292 8.65467328,13.1405795 8.77133001,13.2237519 C8.98784747,13.3781189 9.23246591,13.4736999 9.48324826,13.5543152 C9.93356368,13.6991267 10.3974989,13.7806572 10.8659561,13.834975 C11.1092018,13.8631837 11.354224,13.8780686 11.5988694,13.891823 C11.354224,13.8780686 11.1092018,13.8632106 10.8659831,13.834975 C10.3975258,13.7806573 9.93361752,13.6991267 9.48324826,13.5543152 Z M6.88361209,11.0069781 C6.82557981,11.0430267 6.76641704,11.076016 6.7065275,11.1069781 C6.76641704,11.0760529 6.82557981,11.0430267 6.88361209,11.0069781 Z M4.36604475,9.69872299 C4.40515464,9.68146269 4.44426452,9.66167089 4.48337439,9.63911739 C4.44429143,9.66167089 4.40518155,9.68146269 4.36604475,9.69872299 Z M12.1603236,13.9732283 C12.0731945,13.9681653 11.9860653,13.9515954 11.8989361,13.9292721 C11.9860653,13.9513653 12.0731945,13.9681653 12.1603236,13.9732283 Z M14.9243397,13.570196 C14.7009047,13.6394256 14.4731899,13.6918323 14.2431334,13.735222 C14.4731899,13.6918593 14.7009047,13.6394526 14.9243397,13.570196 Z M7.48409544,11.3414443 C7.48409544,11.325375 7.48253428,11.3092789 7.48140378,11.2869381 C7.46786471,11.2957936 7.46013963,11.3012308 7.45206465,11.3060489 C7.32054994,11.3844032 7.19406864,11.4733358 7.05647077,11.5389317 C6.66817129,11.7240374 6.25370885,11.8264552 5.8331094,11.9082011 C5.48052831,11.9767308 5.12514789,12.0254769 4.76753339,12.050617 C4.42448079,12.0747343 4.08002852,12.0927685 3.73632992,12.0908574 C3.37241693,12.0888387 3.00836935,12.0649098 2.64496777,12.0413039 C2.43181488,12.0274418 2.21855433,12.0035937 2.00766245,11.9696787 C1.75884501,11.9296806 1.51107733,11.8803154 1.2655168,11.8235752 C0.950188346,11.7506849 0.642423457,11.6514163 0.353984732,11.5018136 C0.235120837,11.4402014 0.122716942,11.3662076 0.00452597128,11.2961436 C0.122716942,11.3662076 0.235120837,11.4402014 0.353957819,11.5018405 C0.642396556,11.6514432 0.950161433,11.7507118 1.26548989,11.8236021 C1.51105042,11.8803693 1.7588181,11.9297344 2.00763554,11.9697056 C2.21852742,12.0035936 2.43178798,12.0274687 2.64494086,12.0413308 C3.00834244,12.0649367 3.37239002,12.0888656 3.73630301,12.0908843 C4.08000161,12.0927954 4.42442695,12.0747882 4.76750647,12.0506439 C5.12512098,12.0254769 5.4805014,11.9767577 5.83308249,11.908228 C6.25368192,11.8264821 6.66814438,11.7240643 7.05644385,11.5389586 C7.19404173,11.4733627 7.32052302,11.3844301 7.45203774,11.3060758 C7.46011273,11.3012577 7.46783781,11.2958206 7.48137687,11.286965 C7.48253429,11.3093058 7.48406853,11.3254019 7.48406853,11.3414712 C7.48420312,11.8359299 7.48293803,12.3304155 7.48509136,12.8248742 C7.48557587,12.9397275 7.44493174,13.0350932 7.37268747,13.1196114 C7.37268747,13.1196114 7.37268747,13.1195845 7.37271438,13.1195845 C7.44495865,13.0350663 7.48560278,12.9397006 7.48511828,12.8248473 C7.48296495,12.3303886 7.48423003,11.835903 7.48409544,11.3414443 Z M12.7080234,12.0301065 C12.9487928,12.0174019 13.1899659,12.0074427 13.4298739,11.9845636 C13.6559468,11.9630034 13.8821543,11.934714 14.1054278,11.8937199 C14.3780126,11.8436819 14.6498707,11.7858649 14.9179336,11.715774 C15.2396682,11.6316595 15.549721,11.51363 15.8309191,11.3306238 C15.8647803,11.308606 15.8975109,11.2848655 15.9345213,11.2584064 C15.8975109,11.2848924 15.8647534,11.308606 15.8308922,11.3306238 C15.5496941,11.5136031 15.2396413,11.6316595 14.9179066,11.715774 C14.6498169,11.7858649 14.3779857,11.843655 14.1054009,11.8937199 C13.8821274,11.934714 13.6559199,11.9630034 13.429847,11.9845636 C13.1899659,12.0074427 12.9487659,12.0174019 12.7080234,12.0301065 C12.16245,12.0588804 11.6178456,12.0388545 11.0746678,11.9888164 C11.6178456,12.0388814 12.162477,12.0588804 12.7080234,12.0301065 Z M8.52705946,8.94005383 C8.53120196,8.91092215 8.53557456,8.8792695 8.53994716,8.84005383 C8.53557456,8.87926956 8.53120196,8.91092221 8.52705946,8.94005383 Z M15.9733351,10.376375 C15.9734697,10.4844453 15.9346828,10.5773077 15.8674988,10.6591343 C15.7353651,10.8200689 15.5585227,10.9182877 15.3736054,11.0030752 C15.0677516,11.1433109 14.7461516,11.2355273 14.4170149,11.3004771 C14.1926646,11.344755 13.9672647,11.3853991 13.7408688,11.4173492 C13.6955412,11.4237554 13.650079,11.4293809 13.6045899,11.4346566 C13.6501059,11.4293809 13.695595,11.4237554 13.7409496,11.4173492 C13.9673454,11.3853991 14.1927185,11.344755 14.4170956,11.3004771 C14.7462323,11.2355273 15.0678054,11.1433109 15.3736861,11.0030752 C15.5586035,10.9182877 15.7354458,10.8200689 15.8675796,10.6591343 C15.9347635,10.5772808 15.9735504,10.4844453 15.9734158,10.376375 C15.9728506,9.87841712 15.9732005,9.38043233 15.9730659,8.88247445 C15.9730659,8.8670243 15.971424,8.85154724 15.9703743,8.83259791 C15.9703473,8.83262483 15.9703204,8.83262483 15.9702935,8.83265175 C15.9713702,8.85157415 15.9729852,8.8670243 15.9729852,8.88247445 C15.9731197,9.38043233 15.9727698,9.87841712 15.9733351,10.376375 Z M15.9725276,5.54537614 C15.9722046,5.66267886 15.9177253,5.75941727 15.839667,5.84310111 C15.6901182,6.00344354 15.4999521,6.10144704 15.3021148,6.18577687 C15.0085619,6.31093926 14.7028158,6.39734168 14.3899636,6.45715045 C14.1603647,6.50105149 13.9302543,6.54576003 13.6983944,6.57369952 C13.4208569,6.60712998 13.1415967,6.63243163 12.8623904,6.64422112 C12.525394,6.65846002 12.1875094,6.66217452 11.850217,6.65646819 C11.5959624,6.65218845 11.3415732,6.63122038 11.088153,6.60785674 C10.8619725,6.58702326 10.6358458,6.55997204 10.4117917,6.52290782 C9.93951226,6.44474189 9.47272385,6.34165115 9.03896218,6.13019402 C8.91724513,6.07086974 8.80153049,5.99499173 8.69337942,5.91305747 C8.60611567,5.84695019 8.54563397,5.76681935 8.51311867,5.67107686 C8.54563397,5.76681935 8.60611567,5.84697712 8.69340633,5.91311131 C8.80153049,5.99504556 8.91724513,6.07089666 9.03898909,6.13024786 C9.47275078,6.34170499 9.93953918,6.44479573 10.4118186,6.52296166 C10.6358727,6.56005279 10.8619994,6.58707709 11.0881799,6.60791058 C11.3416001,6.63124731 11.5959893,6.65221538 11.8502439,6.65652203 C12.1875094,6.66220145 12.525394,6.65848694 12.8624173,6.64427495 C13.1416505,6.63248547 13.4208838,6.60718382 13.6984213,6.57375335 C13.9302812,6.54581388 14.1603647,6.50110534 14.3899905,6.45720429 C14.7028427,6.3973955 15.0085888,6.31099309 15.3021417,6.18583071 C15.499979,6.10147395 15.6901451,6.00347046 15.839694,5.84315494 C15.9177522,5.75944418 15.9722584,5.66270577 15.9725545,5.54542997 C15.9739003,5.03907411 15.9731736,4.53271824 15.9729852,4.02638929 C15.9729852,4.0144383 15.9702128,4.0024604 15.969809,3.99920348 C15.969809,3.99920348 15.969809,3.99920348 15.9697821,3.99920348 C15.9702128,4.00251423 15.9729583,4.01438446 15.9729583,4.02633546 C15.9731736,4.53269133 15.9739003,5.03904719 15.9725276,5.54537614 Z M11.7693056,11.5408092 C12.2307106,11.5728194 12.6920888,11.5611393 13.1526325,11.4920852 C13.2265725,11.4809915 13.3005664,11.4697513 13.3745333,11.457778 C13.3005664,11.4697513 13.2265456,11.4810404 13.1525518,11.4920852 C12.6920619,11.5610905 12.2307106,11.5727705 11.7693056,11.5408092 Z M9.51861673,9.3135714 C9.83892477,9.40629924 10.1653967,9.46993017 10.4950448,9.52053346 C10.7183722,9.55482526 10.9421033,9.5809344 11.1662113,9.6000183 C10.9421302,9.5809344 10.7183991,9.55482526 10.4950986,9.52053346 C10.1654505,9.46993017 9.83895168,9.40627231 9.51867056,9.3135714 C9.23340798,9.23099114 8.95525141,9.12943465 8.6987089,8.97673655 C8.65825319,8.95267307 8.61884722,8.92648318 8.5783915,8.89921662 C8.61884721,8.92648318 8.65822626,8.95267307 8.69862815,8.97673655 C8.95519759,9.12943465 9.23335416,9.23099114 9.51861673,9.3135714 Z M4.3142033,9.05856313 C4.12191081,9.10258995 3.92340058,9.11896582 3.67218756,9.15856313 C3.92340058,9.11896582 4.12191081,9.10272422 4.3142033,9.05856313 Z M0.374010708,8.44510595 C0.664333609,8.61963346 0.98313431,8.72110919 1.30831426,8.80460462 C1.77432208,8.92424908 2.24915856,8.99315569 2.72792486,9.03013915 C2.73586527,9.03075824 2.74377877,9.03129657 2.75171918,9.03191566 C2.74380568,9.03132349 2.73586527,9.03075824 2.72795178,9.03013915 C2.24915856,8.99315569 1.774349,8.92424908 1.30834119,8.80460462 C0.98313431,8.72110919 0.664333597,8.61963346 0.374010708,8.44510595 C0.264917562,8.37951009 0.16381865,8.30347058 0.0877253046,8.19973384 C-0.0365219118,8.0303205 -0.0282315843,7.85154017 0.10920479,7.69149382 C0.241096334,7.53788055 0.413147503,7.44216497 0.593166006,7.35872338 C0.853853679,7.23792149 1.12700376,7.15229964 1.40696375,7.0923832 C1.67325009,7.03540067 1.94131292,6.98347846 2.21091001,6.94619892 C2.47100552,6.91021136 2.73368502,6.8881128 2.99596078,6.8738739 C3.03213674,6.87190899 3.06833963,6.87032091 3.1045156,6.8685444 C3.06831271,6.87034782 3.03208292,6.87190899 2.99593387,6.8738739 C2.73363119,6.8881128 2.4709786,6.91021136 2.21088309,6.94619892 C1.94128601,6.98347846 1.67322318,7.03540067 1.40693684,7.0923832 C1.12697685,7.15229964 0.853826767,7.23792148 0.593139094,7.35872338 C0.413120591,7.44213805 0.241069422,7.53788055 0.109177878,7.69149382 C-0.0282584966,7.85154017 -0.0365219001,8.03032051 0.0876983923,8.19973384 C0.163764813,8.30347058 0.264863726,8.37951009 0.374010708,8.44510595 Z M15.7493617,2.73172574 C15.7837322,2.76366793 15.8165831,2.79761658 15.8493617,2.83172574 C15.8166555,2.79761661 15.7837322,2.76358769 15.7493617,2.73172574 Z M14.8088943,6.9527935 C14.9617539,6.91284921 15.1125678,6.86596042 15.2605017,6.81021605 C15.1125678,6.86596042 14.9617539,6.9128492 14.8088943,6.9527935 Z M6.72475006,8.63120761 C6.49033304,8.72487753 6.2483255,8.7948877 6.00088081,8.84484499 C6.24832552,8.79491463 6.49033304,8.72490444 6.72475006,8.63120761 Z M14.3628855,8.91184052 C14.0848097,8.96217464 13.8059533,9.01267026 13.5252934,9.04338215 C12.9832192,9.1026795 12.4388301,9.12835798 11.8932298,9.10639401 C11.6707637,9.09745768 11.447867,9.09134761 11.2262892,9.07148312 C10.9781985,9.04924997 10.7303232,9.01958783 10.484332,8.98066637 C10.2537102,8.94419432 10.0237344,8.89932428 9.79693481,8.84398367 C9.44440756,8.75795808 9.10019754,8.64625402 8.79445141,8.44187596 C8.69267959,8.37385761 8.602455,8.29332301 8.5398469,8.18571028 C8.5032941,8.12285991 8.48717102,8.05502998 8.48717102,7.98278571 C8.48719794,7.48485476 8.48711719,6.98689688 8.48727868,6.48896594 C8.48727868,6.4746732 8.48948585,6.46038046 8.49110085,6.44083898 C8.49110085,6.44083898 8.49107394,6.44083898 8.49107394,6.44081207 C8.48945894,6.46038046 8.48725177,6.47470011 8.48725177,6.48899285 C8.48709028,6.98692381 8.48717102,7.48488168 8.48714411,7.98281263 C8.48714411,8.0550569 8.50326718,8.12288683 8.53981998,8.18573719 C8.60242809,8.29337684 8.6926796,8.37388451 8.7944245,8.44190287 C9.10017063,8.64628093 9.44438065,8.75801191 9.7969079,8.84401058 C10.0237075,8.8993512 10.2536833,8.94422124 10.4843051,8.98069328 C10.7302963,9.01958783 10.9781716,9.04924997 11.2262623,9.07151003 C11.4478401,9.09137451 11.6707637,9.09748459 11.8932029,9.10642092 C12.4388032,9.12835798 12.9831923,9.10270643 13.5252665,9.04340906 C13.8059263,9.01269718 14.0847828,8.96220155 14.3628855,8.91184052 C14.6545811,8.8590839 14.9396553,8.77887231 15.2159277,8.67012908 C15.4221361,8.58894849 15.6212385,8.49430957 15.7880678,8.34398014 C15.7880678,8.34398014 15.7880948,8.34395322 15.7880948,8.34395322 C15.6212654,8.49428266 15.422163,8.58892157 15.2159546,8.67010217 C14.9396822,8.77884539 14.6545811,8.85905698 14.3628855,8.91184052 Z M5.00068534,9.00769067 C4.82061301,9.05930357 4.63887184,9.08479984 4.45739984,9.10769067 C4.63887183,9.08479987 4.82063991,9.05936562 5.00068534,9.00769067 Z M15.8617118,3.37904405 C15.7186767,3.54401615 15.532279,3.64498048 15.3367565,3.73062922 C15.0147258,3.87172626 14.6782678,3.96822242 14.3326581,4.02768128 C14.0044097,4.08417932 13.6750307,4.14032742 13.3438214,4.17195449 C13.1647719,4.18907347 12.9851841,4.19973246 12.8089609,4.20829195 C12.985211,4.19975938 13.1648258,4.18912731 13.3438753,4.17200831 C13.6751115,4.14038126 14.0044635,4.08423314 14.3327119,4.02773511 C14.6783216,3.96824933 15.0147796,3.87178009 15.3368103,3.73068305 C15.5323059,3.64500738 15.7187306,3.54406997 15.8617656,3.37909788 C15.9985291,3.22133945 16.0081114,3.04274753 15.8853984,2.87554134 C15.8586971,2.83915004 15.8293849,2.80601566 15.7979732,2.77551909 C15.829358,2.80598873 15.8586702,2.83912312 15.8853446,2.8754875 C16.0080576,3.0426937 15.9984752,3.22128562 15.8617118,3.37904405 Z M10.2600356,4.05529776 C9.90212505,3.99920348 9.55231637,3.90698706 9.21540077,3.77151561 C9.00488571,3.68686277 8.80153049,3.5887247 8.63857713,3.42528685 C8.80150356,3.58875161 9.0048857,3.6869166 9.21545459,3.77156945 C9.55237019,3.90701398 9.90217887,3.99925732 10.2600895,4.0553516 C10.590895,4.10719305 10.9230463,4.15513159 11.2563551,4.18511673 C11.5769054,4.21391754 11.8997705,4.21749746 12.2550971,4.23370127 C11.8997705,4.21749746 11.5769054,4.21389063 11.2563013,4.1850629 C10.9229656,4.15507776 10.5908412,4.10713922 10.2600356,4.05529776 Z M7.48417621,8.90419619 C7.48417621,8.88460088 7.48417621,8.86500556 7.48417621,8.84487191 C7.35834091,8.91921568 7.24351451,8.99692402 7.12045162,9.05797097 C7.03571803,9.10001476 6.94980011,9.1380749 6.86294011,9.17306652 C6.62203617,9.27015485 6.37359556,9.34215686 6.12106363,9.39959698 C5.94400596,9.43986428 5.76495646,9.47318707 5.58504563,9.50284921 C5.35770768,9.54034409 5.12802797,9.56599566 4.89848285,9.58680222 C4.80217511,9.59552321 4.70573278,9.60435187 4.6092097,9.61207694 C4.56727357,9.61544153 4.52533744,9.61845618 4.4833744,9.62128244 C4.44426452,9.62392028 4.40515464,9.62623511 4.36604477,9.62825386 C4.28615617,9.6323721 4.20626759,9.63522527 4.12637899,9.6357636 C3.72171419,9.63842835 3.3162419,9.63441776 2.91238461,9.61116178 C2.56825535,9.59132422 2.22469134,9.54917276 1.88314606,9.50074971 C1.53511389,9.45138459 1.19246504,9.37076925 0.85818727,9.25976502 C0.58579086,9.16929819 0.321496346,9.06039346 0.0847375736,8.89396787 C0.0606202637,8.87701038 0.0369874567,8.85935306 0.00573723443,8.83666233 C0.00573723443,8.83666233 0.00573723443,8.83666233 0.00573723443,8.83668925 C0.00433757361,8.86236773 0.00269565549,8.8785177 0.00269565549,8.89466769 C0.00256107069,9.39084906 0.00328781923,9.88703044 0.00188815841,10.3832118 C0.0016459128,10.4639348 0.023233059,10.5358561 0.0650076789,10.6030939 C0.145838357,10.7332089 0.265563574,10.8205803 0.394359702,10.8961353 C0.715932825,11.0847672 1.06792175,11.1944794 1.42890083,11.2719993 C1.4747937,11.2818508 1.52092883,11.2909217 1.5669832,11.300208 C1.71922373,11.330866 1.87221791,11.3583479 2.0256966,11.3823576 C2.11654026,11.3965426 2.20746468,11.409974 2.2985506,11.4217097 C2.59409533,11.4598236 2.89200872,11.4852868 3.18967987,11.4998218 C3.55262387,11.5175598 3.91597161,11.5209244 4.27867335,11.5027826 C4.39958291,11.4967264 4.52041171,11.4883014 4.64115976,11.4772118 C4.94946298,11.4488686 5.25725478,11.4119389 5.56394299,11.3692491 C5.91095233,11.3209607 6.25115177,11.2391879 6.58263022,11.1246845 C6.62416259,11.110338 6.66547964,11.09548 6.7065006,11.0800298 C6.76639014,11.0574198 6.82555291,11.0333294 6.88358519,11.007005 C7.02263656,10.9439393 7.1551741,10.8680343 7.27508774,10.7682813 C7.41090911,10.6552852 7.48955954,10.5196792 7.48662562,10.3319625 C7.47919663,9.85613015 7.48417621,9.38010933 7.48417621,8.90419619 Z M8.94518459,10.9334956 C9.39657667,11.1706313 9.88672872,11.2825507 10.3839868,11.3669343 C10.6012579,11.4038101 10.8206285,11.4301346 11.0399453,11.4523408 C11.2612809,11.4747624 11.4834777,11.491666 11.7057285,11.5012214 C11.7269118,11.5021366 11.7481222,11.5027019 11.7693056,11.5035094 C12.2306837,11.5211128 12.6920619,11.5146798 13.1525518,11.4766735 C13.2265187,11.4705634 13.3005395,11.4643726 13.3745333,11.457778 C13.4513265,11.4509412 13.5280659,11.4435122 13.6045899,11.4346566 C13.650079,11.4293809 13.6955412,11.4237554 13.7408688,11.4173492 C13.9672647,11.3853991 14.1926647,11.344755 14.4170149,11.3004771 C14.7461516,11.2355273 15.0677516,11.1433109 15.3736054,11.0030752 C15.5585227,10.9182877 15.735365,10.8200689 15.8674988,10.6591343 C15.9346828,10.5773077 15.9734697,10.4844453 15.9733351,10.376375 C15.9727698,9.87841711 15.9731197,9.38043232 15.9729852,8.88247444 C15.9729852,8.86702429 15.9713702,8.85157414 15.9702935,8.83265174 C15.9702935,8.83262483 15.9702935,8.83262483 15.9702935,8.8325979 C15.9175638,8.86982362 15.8719401,8.90462684 15.8238131,8.93550022 C15.5314177,9.12302846 15.2079065,9.23667052 14.8763474,9.32985594 C14.4541598,9.44853141 14.0231167,9.52387109 13.5877131,9.56919872 C13.2759915,9.60163327 12.962628,9.6264235 12.6494259,9.6354944 C12.1538905,9.64986789 11.6591896,9.64198132 11.1662113,9.60001828 C10.9421033,9.58093438 10.7183453,9.55482524 10.4950448,9.52053343 C10.1653967,9.46993015 9.83892477,9.40629921 9.51861673,9.31357138 C9.23335416,9.23099112 8.95519759,9.12943463 8.69865507,8.97673652 C8.65825319,8.95267305 8.61887415,8.92648315 8.57841843,8.89921659 C8.54983295,8.87994428 8.52081681,8.86024129 8.49013184,8.84005381 C8.48962043,8.84759046 8.48908209,8.85367363 8.48862451,8.85927229 C8.48784392,8.86858545 8.48719792,8.87609519 8.48711718,8.88336269 C8.48700952,9.38471205 8.48711718,9.88603451 8.48703643,10.3873839 C8.48703643,10.4745938 8.5135224,10.5531096 8.56372194,10.6238197 C8.66210228,10.7623866 8.79797748,10.8561641 8.94518459,10.9334956 Z M7.48406853,11.3414712 C7.48406853,11.3254019 7.48253429,11.3093058 7.48137687,11.286965 C7.4678378,11.2958206 7.46011272,11.3012577 7.45203774,11.3060758 C7.32052302,11.3844301 7.19404173,11.4733627 7.05644385,11.5389586 C6.66814438,11.7240643 6.25368194,11.8264821 5.83308249,11.908228 C5.4805014,11.9767577 5.12512098,12.0254769 4.76750647,12.0506439 C4.42442695,12.0747882 4.08000161,12.0927954 3.73630301,12.0908843 C3.37239002,12.0888656 3.00834244,12.0649367 2.64494086,12.0413308 C2.43178797,12.0274687 2.21852742,12.0035936 2.00763554,11.9697056 C1.7588181,11.9297344 1.51105042,11.8803693 1.26548989,11.8236021 C0.950161433,11.7507118 0.642396544,11.6514432 0.353957819,11.5018405 C0.235120848,11.4402014 0.122716954,11.3662076 0.00452597128,11.2961436 C0.00393380753,11.3023344 0.00272255607,11.3089021 0.00272255607,11.3154966 C0.00272255607,11.8318924 0.00269564379,12.3482882 0.00326088356,12.8647378 C0.00328779584,12.886298 0.00727146835,12.9083158 0.0124663806,12.9293377 C0.0464351876,13.0665318 0.139243761,13.1616822 0.245752919,13.2441817 C0.462001223,13.4117108 0.712379819,13.5112486 0.969272252,13.5952554 C1.35078873,13.7200141 1.74202212,13.8036171 2.14014617,13.8513942 C2.4444388,13.8879201 2.74945819,13.9251727 3.05523123,13.9411074 C3.40205216,13.9591684 3.75051501,13.9665167 4.09749743,13.9551848 C4.46439818,13.9432068 4.83137967,13.9130333 5.19642316,13.8732236 C5.45503826,13.8450149 5.71147311,13.792689 5.96704661,13.7418704 C6.29104223,13.6774319 6.60696286,13.5832506 6.90737949,13.4435801 C7.08088417,13.362911 7.2459101,13.2679221 7.37268748,13.1196114 C7.37268748,13.1196114 7.37268748,13.1196114 7.37268748,13.1196114 C7.44493175,13.0350932 7.48557588,12.9397275 7.48509137,12.8248742 C7.48293803,12.3304155 7.48420312,11.8359299 7.48406853,11.3414712 Z M15.9731467,6.44371905 C15.9421118,6.46218387 15.9116691,6.48089093 15.8815493,6.49951725 C15.7911633,6.55542311 15.7036573,6.61073681 15.6116023,6.65703343 C15.4968029,6.71482347 15.379554,6.765346 15.2605017,6.81018913 C15.1125409,6.86596042 14.9617539,6.91282229 14.8088943,6.95276658 C14.6462101,6.99526796 14.481238,7.03015193 14.3151085,7.06011015 C14.013992,7.11440101 13.7094302,7.15267648 13.4050299,7.1850572 C13.1487296,7.21232376 12.890599,7.22973883 12.632926,7.23560665 C12.1504452,7.24656173 11.6675876,7.24866122 11.1865334,7.1980041 C10.937043,7.17173346 10.6869874,7.14828906 10.438816,7.11232843 C10.1290862,7.06745838 9.82299012,7.00234702 9.52216974,6.91427577 C9.23706867,6.83080727 8.95899284,6.73019286 8.70220808,6.57819458 C8.6318749,6.53655453 8.56498704,6.48907357 8.49110086,6.44075821 C8.49110086,6.44078512 8.49110086,6.44078512 8.49110086,6.44081204 C8.48948587,6.46035353 8.4872787,6.47467318 8.4872787,6.488939 C8.4871172,6.98686996 8.48719795,7.48482783 8.48717104,7.98275878 C8.48717104,8.05500305 8.5032941,8.12283298 8.53984691,8.18568334 C8.60245501,8.29329608 8.6926796,8.37383066 8.79445142,8.44184902 C9.10019755,8.64622708 9.44440757,8.75793115 9.79693483,8.84395673 C10.0237345,8.89929735 10.2537102,8.94416739 10.484332,8.98063943 C10.7303232,9.0195609 10.9781986,9.04922304 11.2262892,9.07145618 C11.447867,9.09132066 11.6707637,9.09743074 11.8932298,9.10636707 C12.4388301,9.12833105 12.9832192,9.10265258 13.5252934,9.04335521 C13.8059533,9.01264333 14.0848097,8.9621477 14.3628855,8.91181359 C14.6545812,8.85903005 14.9396822,8.77881846 15.2159546,8.67007522 C15.422163,8.58889463 15.6212654,8.49425571 15.7880948,8.34392628 C15.9103771,8.23375646 15.9768612,8.10224175 15.974977,7.93083658 C15.9697014,7.45320077 15.9731467,6.97548422 15.9731467,6.49779458 C15.9731467,6.4797066 15.9731467,6.4615917 15.9731467,6.44371905 Z M15.9731467,11.2945016 C15.9731467,11.2810433 15.9731467,11.2676119 15.9731467,11.2500354 C15.9731467,11.2441675 15.9731467,11.237869 15.9731467,11.2309515 C15.9596614,11.2404261 15.9468491,11.2495778 15.9345213,11.2584064 C15.8975109,11.2848924 15.8647803,11.308606 15.8309191,11.3306238 C15.549721,11.51363 15.2396682,11.6316595 14.9179336,11.715774 C14.6498707,11.7858649 14.3780127,11.8436819 14.1054278,11.8937199 C13.8821543,11.934714 13.6559468,11.9630034 13.429874,11.9845636 C13.1899659,12.0074427 12.9487928,12.0174019 12.7080235,12.0301065 C12.162477,12.0588804 11.6178456,12.0388814 11.0746678,11.9888164 C11.0546418,11.9869592 11.0346158,11.985398 11.0145899,11.9834869 C10.7635114,11.9593427 10.5137519,11.9190485 10.2642885,11.8803693 C9.97143541,11.8349609 9.68356192,11.7658659 9.40107177,11.6762334 C9.10797646,11.5832365 8.8238713,11.4697828 8.56977821,11.2919446 C8.54571473,11.2751217 8.52194733,11.2578681 8.4918007,11.2363617 C8.4918007,11.2363617 8.4918007,11.2363617 8.4918007,11.2363886 C8.48959353,11.2588102 8.4872787,11.2715687 8.4872787,11.2843541 C8.48714411,11.7856496 8.48682112,12.286972 8.48800544,12.7882676 C8.48808619,12.8264085 8.49454619,12.8659221 8.50579734,12.9023941 C8.54991371,13.0454292 8.65470021,13.1405795 8.77135693,13.2237519 C8.98787439,13.3780919 9.23249284,13.4736729 9.48324828,13.5543152 C9.93361753,13.6991267 10.3975258,13.7806572 10.8659831,13.834975 C11.1092019,13.8631837 11.354224,13.8780417 11.5988694,13.891823 C11.6032568,13.8920652 11.6076173,13.8923344 11.6120047,13.8925766 C11.7076396,13.897933 11.8032744,13.9016475 11.8989361,13.9045007 C11.9860653,13.9071116 12.0731945,13.9090496 12.1603236,13.9096418 C12.4649393,13.9117144 12.7695011,13.9017014 13.0739821,13.8810294 C13.4490655,13.8555662 13.8216995,13.8124458 14.1916957,13.7449119 C14.2088685,13.7417896 14.2259875,13.738425 14.2431334,13.735195 C14.4731899,13.6918054 14.7009047,13.6393987 14.9243397,13.5701691 C14.9573665,13.5599408 14.9902855,13.5493894 15.0231238,13.5384074 C15.272991,13.4548044 15.5162905,13.356424 15.7275323,13.193686 C15.8884131,13.0697349 15.9804411,12.9179789 15.9760806,12.7021343 C15.966579,12.2331119 15.9731467,11.7637395 15.9731467,11.2945016 Z M8.51311866,5.67107685 C8.54566088,5.76679243 8.60611566,5.84692327 8.69337941,5.91305746 C8.80153047,5.99499171 8.91724512,6.07086973 9.03896217,6.13019401 C9.47272385,6.34165114 9.93951225,6.44474188 10.4117916,6.52290781 C10.6358458,6.55997202 10.8619725,6.58702325 11.088153,6.60785673 C11.3415732,6.63122038 11.5959624,6.65218844 11.850217,6.65646818 C12.1875094,6.66217451 12.525394,6.65846002 12.8623904,6.64422111 C13.1415967,6.63243162 13.4208568,6.60712997 13.6983943,6.5736995 C13.9302543,6.54576003 14.1603647,6.50105149 14.3899636,6.45715044 C14.7028157,6.39734166 15.0085619,6.31093925 15.3021148,6.18577686 C15.4999521,6.10144702 15.6901182,6.00344353 15.839667,5.84310109 C15.9177253,5.75941726 15.9722046,5.66267885 15.9725276,5.54537612 C15.9739003,5.03904718 15.9731736,4.53269132 15.9729582,4.02633545 C15.9729582,4.01441138 15.9702127,4.00251422 15.9697821,3.99920347 C15.9697821,3.99920347 15.9697821,3.99914963 15.9697821,3.99914963 C15.8357103,4.07653498 15.7070757,4.16108015 15.5698815,4.22804876 C15.1613138,4.42744724 14.7242683,4.54014721 14.2793631,4.61788248 C13.9663495,4.67257709 13.6500521,4.7131943 13.3335662,4.74221044 C13.0164074,4.77130733 12.6973914,4.78796873 12.3789136,4.79284064 C11.7001298,4.80323046 11.0243067,4.76029842 10.353544,4.64921343 C10.0494936,4.59887932 9.74888858,4.53462929 9.45398985,4.44496996 C9.17292629,4.35950962 8.89996461,4.2548308 8.64985519,4.09771837 C8.59874049,4.06560681 8.54999445,4.02975386 8.48711718,3.98668722 C8.48711718,3.99519288 8.48711718,4.00291796 8.48711718,4.01002395 C8.48711718,4.03134193 8.48711718,4.04719583 8.48709026,4.06302281 C8.48709026,4.53562521 8.49131618,5.00828143 8.48496385,5.48077617 C8.48402177,5.55011347 8.49349643,5.61342141 8.51311866,5.67107685 Z M8.63857713,3.42528685 C8.80153047,3.5887247 9.0048857,3.68686278 9.21540077,3.77151561 C9.55231637,3.90698707 9.90212505,3.99920348 10.2600356,4.05529776 C10.5908412,4.10713921 10.9229656,4.15507775 11.2563013,4.1850629 C11.5769054,4.21389062 11.8997705,4.21749745 12.2550971,4.23370127 C12.4323163,4.22425353 12.6186871,4.21749746 12.8089609,4.20829196 C12.985211,4.19975939 13.1647989,4.18907348 13.3438214,4.1719545 C13.6750307,4.14032745 14.0044097,4.08417933 14.3326581,4.02768129 C14.6782678,3.96822243 15.0147258,3.87172628 15.3367565,3.73062924 C15.532279,3.64498049 15.7186767,3.54401616 15.8617118,3.37904407 C15.9984752,3.22128563 16.0080576,3.04269371 15.8853446,2.87548753 C15.8586702,2.83912314 15.829358,2.80598876 15.7979732,2.77551912 C15.7942856,2.7719392 15.7903288,2.76876304 15.7865874,2.76526388 C15.7743942,2.75382431 15.7621471,2.74243857 15.7493886,2.73172574 C15.665947,2.6617963 15.5709851,2.6066441 15.4723625,2.55727898 C14.9922235,2.31704795 14.4740243,2.20800864 13.9492575,2.12532071 C13.7547847,2.09468957 13.558697,2.07170276 13.3624747,2.05549894 C13.0902936,2.03302355 12.8175203,2.01235156 12.5446125,2.00505715 C12.1076208,1.99334842 11.6704407,2.00048133 11.234768,2.04225595 C11.0134863,2.06346626 10.7917739,2.08341149 10.5719726,2.11571147 C10.3624804,2.14650411 10.1543878,2.18849407 9.94723733,2.23290652 C9.63898795,2.29898687 9.33797914,2.38950754 9.05193599,2.52462908 C8.89719222,2.59773469 8.74963519,2.68254902 8.62904864,2.80650016 C8.44044373,3.00040764 8.44036298,3.22117794 8.62789122,3.41470859 C8.63139039,3.41834236 8.63502414,3.42173386 8.63857713,3.42528685 Z M2.21091001,6.94619892 C1.94131292,6.98347846 1.67325009,7.03540067 1.40696375,7.0923832 C1.12700376,7.15229964 0.853853679,7.23792148 0.593166006,7.35872338 C0.413147503,7.44216497 0.241096334,7.53788055 0.10920479,7.69149382 C-0.0282315843,7.85154017 -0.0365219118,8.03032051 0.0877253046,8.19973384 C0.16381865,8.30347058 0.264917562,8.37951009 0.37403762,8.44510595 C0.664333597,8.61963346 0.98313431,8.72110919 1.30834118,8.80460462 C1.77434899,8.92424908 2.24915856,8.99315569 2.72795177,9.03013915 C2.73586527,9.03075824 2.74380568,9.03129657 2.75171916,9.03191566 C3.03803148,9.05339514 3.32412846,9.06300438 3.56777791,9.07377104 C3.60355014,9.07535912 3.63840718,9.0769472 3.67221449,9.07861603 C3.9234275,9.07064871 4.12193774,9.0673918 4.31423023,9.05856313 C4.33853596,9.05743263 4.36273402,9.0562483 4.38693208,9.05492939 C4.41040339,9.05363739 4.43390162,9.05237231 4.45739984,9.05108031 C4.63887184,9.04114807 4.82063992,9.03008533 5.00068534,9.00769069 C5.01115591,9.00639869 5.02168032,9.00521436 5.0321509,9.00384161 C5.33385953,8.96395114 5.63457225,8.91415536 5.93380456,8.85830333 C5.95622612,8.85410433 5.97851309,8.849367 6.00088083,8.84484501 C6.24832552,8.79488773 6.49035996,8.72490446 6.72475008,8.63120763 C6.77731828,8.61021265 6.82964423,8.58843709 6.88140493,8.56501961 C7.05272935,8.48747277 7.21576346,8.39627918 7.34743967,8.25841215 C7.52883092,8.06848832 7.5279965,7.85124411 7.34768191,7.66126645 C7.25713433,7.56587388 7.15070592,7.49204153 7.03558346,7.43099458 C6.5879597,7.19367055 6.10162982,7.08013616 5.6076287,6.99701756 C5.3538586,6.95432777 5.09753142,6.92256614 4.84109657,6.90097899 C4.53198585,6.87495059 4.22169081,6.85532837 3.91166493,6.85072562 C3.64276768,6.84671504 3.37335901,6.8552207 3.1045156,6.86854444 C3.06833963,6.87034786 3.03210983,6.87190902 2.99596078,6.87387394 C2.73368501,6.88811281 2.47100552,6.91021138 2.21091001,6.94619892 Z" id="Shape" fill="#6E5AC8" fill-rule="nonzero"></path>
                    </g>
                </g>
            </g>
        </g>
    </g>
</svg>