<?xml version="1.0" encoding="UTF-8"?>
<svg width="20px" height="24px" viewBox="0 0 20 24" version="1.1" xmlns="http://www.w3.org/2000/svg" xmlns:xlink="http://www.w3.org/1999/xlink">
    <!-- Generator: Sketch 52.2 (67145) - http://www.bohemiancoding.com/sketch -->
    <title>lock_icon</title>
    <desc>Created with Sketch.</desc>
    <g id="Page-1" stroke="none" stroke-width="1" fill="none" fill-rule="evenodd">
        <g id="密码登录" transform="translate(-66.000000, -275.000000)" fill-rule="nonzero">
            <g id="密码" transform="translate(48.000000, 265.000000)">
                <g id="lock_icon" transform="translate(16.000000, 10.000000)">
                    <rect id="Mask" x="0" y="0" width="24" height="24"></rect>
                    <path d="M6,8 L6,6 C6,2.6862915 8.6862915,0 12,0 C15.3137085,0 18,2.6862915 18,6 L18,8 L20,8 C21.1045695,8 22,8.8954305 22,10 L22,22 C22,23.1045695 21.1045695,24 20,24 L4,24 C2.8954305,24 2,23.1045695 2,22 L2,10 C2,8.8954305 2.8954305,8 4,8 L6,8 Z M8,8 L16,8 L16,6 C16,3.790861 14.209139,2 12,2 C9.790861,2 8,3.790861 8,6 L8,8 Z M5,10 C4.44771525,10 4,10.4477153 4,11 L4,21 C4,21.5522847 4.44771525,22 5,22 L19,22 C19.5522847,22 20,21.5522847 20,21 L20,11 C20,10.4477153 19.5522847,10 19,10 L5,10 Z" id="合并形状" fill="#E6EBF7"></path>
                    <path d="M12,16 C10.8954305,16 10,15.1045695 10,14 C10,12.8954305 10.8954305,12 12,12 C13.1045695,12 14,12.8954305 14,14 C14,15.1045695 13.1045695,16 12,16 Z M11,16 L13,16 L13,20 L11,20 L11,16 Z" id="合并形状" fill="#E6EBF7"></path>
                </g>
            </g>
        </g>
    </g>
</svg>