<?xml version="1.0" encoding="UTF-8"?>
<svg width="150px" height="59px" viewBox="0 0 150 59" version="1.1" xmlns="http://www.w3.org/2000/svg" xmlns:xlink="http://www.w3.org/1999/xlink">
    <!-- Generator: Sketch 52.2 (67145) - http://www.bohemiancoding.com/sketch -->
    <title>login_logo</title>
    <desc>Created with Sketch.</desc>
    <g id="Page-1" stroke="none" stroke-width="1" fill="none" fill-rule="evenodd">
        <g id="密码登录" transform="translate(-113.000000, -100.000000)">
            <g id="login_logo" transform="translate(113.000000, 100.000000)">
                <path d="M33,45.5609228 C33,44.9579145 32.5321866,44.4690024 31.9552007,44.4690024 L25.3153145,44.4690024 C24.9016084,44.4690024 24.5439251,44.7207146 24.3746599,45.0852719 L24.3739417,45.0857723 C23.0660273,48.1160764 20.1576355,50.2288572 16.7699384,50.2288572 C12.1590792,50.2288572 8.42088119,46.3223145 8.42088119,41.503503 C8.42088119,36.6844412 12.1590792,32.7778985 16.7699384,32.7778985 C20.1047251,32.7778985 22.974332,34.8253742 24.3112154,37.7798645 C24.3112154,37.7798645 24.3121731,37.7803649 24.3124125,37.7808653 C24.4797623,38.1511774 24.8400792,38.4073934 25.2578553,38.4073934 C25.2588129,38.4073934 25.2592918,38.4076436 25.26001,38.4076436 L31.9221617,38.4076436 C31.9228799,38.4076436 31.9231193,38.4073934 31.9238376,38.4073934 C32.5010628,38.4073934 32.9688763,37.9184813 32.9688763,37.3152228 C32.9688763,37.2231452 32.9554691,37.1343204 32.935119,37.0487482 C31.0506976,29.5409202 24.5199837,24 16.7448,24 C7.49674616,24 0,31.8351039 0,41.5 C0,51.1648961 7.49674616,59 16.7448,59 C24.567627,59 31.1306616,53.3910224 32.9691157,45.8128851 C32.9875505,45.7318168 33,45.6479962 33,45.5609228" id="Fill-1" fill="#FFFFFF"></path>
                <path d="M74.8166088,45.600448 L79.95781,34.037108 L81.7368485,45.600448 L74.8166088,45.600448 Z M45.1329143,45.600448 L50.2714809,34.037108 L52.050759,45.600448 L45.1329143,45.600448 Z M117.374862,32.1398965 C118.273243,30.5309903 119.397716,29.0676734 120.704931,27.7884984 C120.704691,27.7839487 120.697027,27.7808358 120.702296,27.7753283 C120.886475,27.5868763 121,27.3292214 121,27.0452263 C121,26.4681369 120.532008,26 119.954803,26 L100.608836,26 C100.148988,26 99.758356,26.2974046 99.6184855,26.7099876 C99.6184855,26.710706 99.616809,26.7111849 99.616809,26.7119033 C99.5942955,26.7870925 99.5703451,26.866592 99.5701056,26.8673104 L92.2007952,51.778897 L87.0919271,29.1486096 L87.0919271,29.1483702 C86.6304022,27.3385602 84.9890786,26 83.0349623,26 L76.5360108,26 L74.0825279,26 L70.566843,26 C70.2782402,26 70.0442444,26.2341882 70.0442444,26.5227329 C70.0442444,26.6858026 70.1187303,26.8313919 70.2360875,26.9271744 C70.2365665,26.9276533 70.2346504,26.9278928 70.2346504,26.9278928 C71.1857223,27.6958288 71.795261,28.8689248 71.795261,30.1856944 C71.795261,30.7457825 71.683173,31.278812 71.4836658,31.7670632 L62.4988983,51.7063417 L57.4154177,29.1713579 C56.9694605,27.3737602 55.3614281,26.0378341 53.4346153,26 L46.8192647,26 L44.3961988,26 L40.8817114,26 C40.5928692,26 40.3591129,26.2341882 40.3591129,26.5227329 C40.3591129,26.683408 40.4314432,26.8270817 40.5454473,26.9228642 C40.5466448,26.923822 40.5442498,26.9245404 40.5442498,26.9254982 C41.4969982,27.6917581 42.1086924,28.8641356 42.1086924,30.182342 C42.1086924,30.7417117 41.9966044,31.2745018 41.7975762,31.7622741 C41.7990132,31.7610768 41.8004503,31.7591611 41.8018873,31.7579638 L31.1034659,55.5029198 C31.0373627,55.6396493 31,55.7929013 31,55.9550131 C31,56.5321026 31.4677521,57 32.0451971,57 L37.3439922,57 C39.0665077,57 40.5464053,55.9595628 41.1887561,54.4730187 C41.1897141,54.4703847 41.1916301,54.4691874 41.1925881,54.4667928 L43.2710072,49.7902132 L52.6955048,49.7902132 L53.6693296,56.1168855 L53.6700481,56.1166461 C53.7476475,56.6168701 54.180432,57 54.702791,57 L60.1134346,57 L63.6930671,57 L67.0293632,57 C68.7039779,57 70.1472313,56.0163139 70.8168856,54.5960992 L72.9537437,49.7902132 L82.3811153,49.7902132 L83.3544612,56.1166461 C83.4323001,56.6168701 83.863887,57 84.3862461,57 L90.6562314,57 L93.3796357,57 L97.0131568,57 C98.880812,57 100.459625,55.7758999 100.998749,54.0872548 L103.514024,45.600448 L114.15736,45.600448 C114.734565,45.600448 115.202557,45.1325506 115.202557,44.5554611 C115.202557,44.4936814 115.035622,43.0727483 114.971435,42.1850842 C114.935988,41.5701607 114.503444,41.1400973 113.925998,41.1400973 L104.836089,41.1400973 L107.340107,32.6906458 L116.443429,32.6906458 C116.835498,32.6901668 117.177271,32.4736984 117.355462,32.153785 C117.359294,32.1466013 117.369114,32.1451645 117.374862,32.1398965 Z" id="Fill-3" fill="#FFFFFF"></path>
                <path d="M148.955208,44.4691063 L142.31537,44.4691063 C141.901667,44.4691063 141.543747,44.7205665 141.374723,45.0853713 L141.374004,45.0858718 C140.066099,48.1161542 137.157729,50.2289199 133.770056,50.2289199 C129.15923,50.2289199 125.42106,46.3224052 125.42106,41.5033778 C125.42106,36.6846007 129.15923,32.778086 133.770056,32.778086 C137.104579,32.778086 139.974405,34.8255471 141.311278,37.7800162 C141.311518,37.7805166 141.312236,37.7805166 141.312476,37.781017 C141.479824,38.1513265 141.840138,38.4072904 142.257672,38.4072904 C142.258869,38.4072904 142.259348,38.4077908 142.260306,38.4077908 L148.92217,38.4077908 C148.922888,38.4077908 148.923127,38.4072904 148.924085,38.4072904 C149.501066,38.4072904 149.968637,37.9183818 149.968637,37.3153779 C149.968637,37.2233009 149.955469,37.1344767 149.93488,37.0489052 C148.050712,29.5408806 141.520045,24 133.744918,24 C124.496931,24 117,31.8350479 117,41.5001251 C117,51.1649521 124.496931,59 133.744918,59 C141.567928,59 148.130675,53.3910625 149.969116,45.8129794 C149.987551,45.7316615 150,45.6480916 150,45.5610189 C150,44.9580149 149.532429,44.4691063 148.955208,44.4691063" id="Fill-5" fill="#FFFFFF"></path>
                <path d="M117.959532,21.6583121 C118.270612,21.8740768 118.645891,22 119.049965,22 C120.126945,22 121,21.1042499 121,19.9990314 C121,19.4156678 120.756187,18.891149 120.367926,18.5252452 C108.537905,7.04395205 92.5741502,0 75.0042484,0 C57.4013033,0 41.4099336,7.06937886 29.5730675,18.5891754 C29.221155,18.9509626 29,19.4473907 29,19.9990314 C29,21.1042499 29.8732907,22 30.9502707,22 C31.3543446,22 31.7296236,21.8740768 32.04094,21.6583121 C32.0470766,21.6539533 32.050853,21.6602494 32.0562816,21.6592808 C44.3817184,13.3253421 59.1382078,8.46930621 75.0042484,8.46930621 C90.8669848,8.46930621 105.621114,13.3236469 117.945371,21.6549219 C117.948911,21.6537111 117.952687,21.6537111 117.959532,21.6583121" id="Fill-7" fill="#F4A100"></path>
            </g>
        </g>
    </g>
</svg>