<?xml version="1.0" encoding="UTF-8"?>
<svg width="16px" height="13px" viewBox="0 0 16 13" version="1.1" xmlns="http://www.w3.org/2000/svg" xmlns:xlink="http://www.w3.org/1999/xlink">
    <!-- Generator: Sketch 52.2 (67145) - http://www.bohemiancoding.com/sketch -->
    <title>profit_icon</title>
    <desc>Created with Sketch.</desc>
    <g id="Page-1" stroke="none" stroke-width="1" fill="none" fill-rule="evenodd">
        <g id="资产规模" transform="translate(-83.000000, -643.000000)">
            <g id="利润" transform="translate(32.000000, 637.000000)">
                <g id="利润标题">
                    <g id="profit_icon" transform="translate(50.000000, 2.000000)">
                        <rect id="Rectangle" fill="#000000" opacity="0" x="0" y="0" width="18" height="18"></rect>
                        <path d="M9.71015625,13.8322266 C9.57128906,12.7212891 9.87714844,11.9900391 10.1671875,11.5646484 C10.1900391,11.53125 10.2128906,11.4996094 10.2357422,11.4679688 C10.2480469,11.4503906 10.2357422,11.4275391 10.2146484,11.4292969 C10.2041016,11.4310547 10.1935547,11.4310547 10.18125,11.4310547 L9.61875,11.4310547 C9.43417969,11.4310547 9.28476562,11.2816406 9.28476562,11.0970703 L9.28476562,7.72207031 C9.28476562,7.5375 9.43417969,7.38808594 9.61875,7.38808594 L10.18125,7.38808594 C10.3658203,7.38808594 10.5152344,7.5375 10.5152344,7.72207031 L10.5152344,11.0970703 C10.5152344,11.1164062 10.5380859,11.1269531 10.5539062,11.1128906 C10.7841797,10.9001953 11.0285156,10.7578125 11.2535156,10.6769531 C11.2710937,10.6699219 11.278125,10.6488281 11.2658203,10.6347656 C11.0566406,10.3658203 10.7208984,9.84375 10.6330078,9.27949219 C10.5240234,8.57636719 11.0988281,8.38300781 11.2447266,8.38300781 C11.5488281,8.38300781 11.7984375,8.69941406 12.1060547,8.69941406 C12.4136719,8.69941406 12.6351562,8.46035156 12.9955078,8.46035156 C13.0042969,8.46035156 13.0148437,8.46035156 13.0236328,8.46210938 C13.0324219,8.46210938 13.0412109,8.46035156 13.0517578,8.46035156 C13.1449219,8.46035156 13.2380859,8.47617187 13.3347656,8.50078125 C13.4455078,8.52890625 13.5544922,8.44277344 13.5544922,8.32851562 L13.5544922,5.37890625 C13.5544922,4.89375 13.1607422,4.5 12.6755859,4.5 L2.6015625,4.5 C2.11640625,4.5 1.72265625,4.89375 1.72265625,5.37890625 L1.72265625,13.1484375 C1.72265625,13.6335937 2.11640625,14.0273438 2.6015625,14.0273438 L9.53613281,14.0273438 C9.64160156,14.0273438 9.72246094,13.9359375 9.71015625,13.8322266 Z M5.6390625,11.0970703 C5.6390625,11.2816406 5.48964844,11.4310547 5.30507812,11.4310547 L4.74257812,11.4310547 C4.55800781,11.4310547 4.40859375,11.2816406 4.40859375,11.0970703 L4.40859375,9.83144531 C4.40859375,9.646875 4.55800781,9.49746094 4.74257812,9.49746094 L5.30507812,9.49746094 C5.48964844,9.49746094 5.6390625,9.646875 5.6390625,9.83144531 L5.6390625,11.0970703 Z M8.07714844,11.0970703 C8.07714844,11.2816406 7.92773438,11.4310547 7.74316406,11.4310547 L7.18066406,11.4310547 C6.99609375,11.4310547 6.84667969,11.2816406 6.84667969,11.0970703 L6.84667969,8.77675781 C6.84667969,8.5921875 6.99609375,8.44277344 7.18066406,8.44277344 L7.74316406,8.44277344 C7.92773438,8.44277344 8.07714844,8.5921875 8.07714844,8.77675781 L8.07714844,11.0970703 Z" id="Shape" fill="#6E5AC8" fill-rule="nonzero"></path>
                        <path d="M13.4990259,9.12029703 C13.4912333,9.12029703 13.4814924,9.11806931 13.4717516,9.11806931 C13.1308226,9.11806931 12.7528784,9.37425743 12.4626017,9.37425743 C12.172325,9.37425743 11.8138624,9 11.6268385,9 C11.4729334,9 11.1729159,9.13811881 11.268376,9.83539604 C11.33851,10.3522277 11.6696982,10.8289604 11.8684111,11.0740099 C11.9580267,11.185396 12.0943983,11.25 12.2366144,11.25 L14.7633856,11.25 C14.9056017,11.25 15.0419733,11.185396 15.1315889,11.0740099 C15.3303018,10.8289604 15.6595419,10.3522277 15.731624,9.83539604 C15.8270841,9.13589109 15.5270666,9 15.3731615,9 C15.1841894,9 14.8257269,9.37648515 14.5354502,9.37648515 C14.2451734,9.37648515 13.8691774,9.12029703 13.5263002,9.12029703 L13.4990259,9.12029703 Z M16.8200244,15.6257523 C16.7484168,15.4348485 16.6156807,15.2807857 16.4969168,15.1535165 C16.4462675,15.0999295 16.3205175,14.8336689 16.4008577,14.3329651 C16.5755105,13.2394547 16.2838404,12.5277519 16.0096355,12.1241745 C15.6149203,11.5447647 15.0665106,11.2684566 14.6997398,11.2533853 C14.5530314,11.2466869 13.8142502,11.2517107 13.4998752,11.2533853 C13.1855002,11.2517107 12.446719,11.2483615 12.3000107,11.2533853 C11.9314933,11.2684566 11.3848302,11.5447647 10.9901149,12.1241745 C10.7141635,12.5294265 10.4224934,13.2411293 10.5988927,14.3329651 C10.679233,14.8353435 10.553483,15.0999295 10.5028337,15.1535165 C10.3840698,15.2807857 10.2513337,15.4348485 10.179726,15.6257523 C10.0784274,15.8920129 10.1185976,16.1649718 10.2932503,16.3960659 C10.6670073,16.8917459 11.311476,16.8816984 11.8284482,16.8716508 C11.9035489,16.8699762 11.9821426,16.8683016 12.0572433,16.8683016 L14.9477467,16.8683016 C15.0228474,16.8683016 15.0996946,16.8699762 15.1765418,16.8716508 C15.2481495,16.8733254 15.3215036,16.875 15.3966043,16.875 C15.8664203,16.875 16.388632,16.8247622 16.7117397,16.3960659 C16.8811529,16.1649718 16.921323,15.8903383 16.8200244,15.6257523 Z M14.332138,13.6531194 C14.5165654,13.6531194 14.6198447,13.7596092 14.6198447,13.9551631 C14.6198447,14.1468447 14.5184096,14.2533345 14.332138,14.2533345 L13.799143,14.2533345 L13.799143,14.3578881 L14.3302937,14.3578881 C14.5147211,14.3578881 14.6180004,14.4643779 14.6180004,14.6599319 C14.6180004,14.8516135 14.5165654,14.9581033 14.3302937,14.9581033 L13.799143,14.9581033 L13.799143,15.4072965 C13.799143,15.5389566 13.7807003,15.6222123 13.7401263,15.6725529 C13.697708,15.7248297 13.6184042,15.75 13.4985265,15.75 C13.3952472,15.75 13.319632,15.7267659 13.2698366,15.6783614 C13.2181969,15.629957 13.1942214,15.5408928 13.1942214,15.4092327 L13.1942214,14.9600394 L12.6704477,14.9600394 C12.4860204,14.9600394 12.3827411,14.8535497 12.3827411,14.6618681 C12.3827411,14.4682503 12.4823319,14.3598243 12.6630706,14.3598243 L13.1942214,14.3598243 L13.1942214,14.2533345 L12.6704477,14.2533345 C12.4860204,14.2533345 12.3827411,14.1468447 12.3827411,13.9551631 C12.3827411,13.7615454 12.4823319,13.6531194 12.6630706,13.6531194 L12.8936048,13.6531194 C12.827211,13.5388849 12.7589729,13.4227142 12.6907347,13.3065436 C12.6040539,13.1613302 12.5192173,13.0161169 12.436225,12.8728397 C12.3827411,12.7837755 12.3642984,12.7024561 12.3808968,12.6288813 C12.395651,12.5553066 12.4380693,12.4933489 12.5044631,12.4449444 C12.5800783,12.3907314 12.6538493,12.3674973 12.7220874,12.3791144 C12.7940141,12.3907314 12.8585636,12.4468806 12.9175804,12.5514342 L13.502215,13.5776085 C13.5888959,13.4207781 13.6755767,13.26782 13.7622576,13.1129258 C13.8655369,12.9309251 13.9669719,12.7489243 14.0702512,12.5649875 C14.1034481,12.5069021 14.1348008,12.4643062 14.1661534,12.4352635 C14.2011946,12.4023485 14.2380801,12.3829867 14.2768098,12.3771782 C14.3155396,12.3713697 14.3542693,12.3771782 14.3911548,12.3946038 C14.4206631,12.408157 14.4520158,12.4275188 14.4852127,12.4488168 C14.5700493,12.5049659 14.6161561,12.5669236 14.6235332,12.636626 C14.6309103,12.7005199 14.6106233,12.777967 14.5589836,12.8709035 L14.1089809,13.6531194 L14.332138,13.6531194 Z" id="Shape" fill="#6E5AC8" fill-rule="nonzero"></path>
                    </g>
                </g>
            </g>
        </g>
    </g>
</svg>