<?xml version="1.0" encoding="UTF-8"?>
<svg width="18px" height="18px" viewBox="0 0 18 18" version="1.1" xmlns="http://www.w3.org/2000/svg" xmlns:xlink="http://www.w3.org/1999/xlink">
    <!-- Generator: Sketch 52.2 (67145) - http://www.bohemiancoding.com/sketch -->
    <title>trash_icon</title>
    <desc>Created with Sketch.</desc>
    <g id="Page-1" stroke="none" stroke-width="1" fill="none" fill-rule="evenodd">
        <g id="消息列表" transform="translate(-338.000000, -35.000000)" fill="#FFFFFF">
            <g id="trash_icon" transform="translate(335.000000, 32.000000)">
                <rect id="Rectangle" opacity="0" x="0" y="0" width="24" height="24"></rect>
                <path d="M13.6575683,4.96558895 L10.3438221,4.96558895 C10.1153358,4.96558895 9.92056637,5.04518838 9.75765982,5.20693626 C9.59625952,5.36868414 9.51503798,5.56414883 9.51503798,5.79356202 L9.51503798,6.61910193 L14.4858889,6.61910193 L14.4858889,5.79356202 C14.4858889,5.56414883 14.4042039,5.36868414 14.2430354,5.20693626 C14.0804764,5.04518838 13.8857069,4.96558895 13.6565255,4.96558895 L13.6575683,4.96558895 Z M16.9709668,18.2055111 L16.9709668,8.27504808 L7.02938078,8.27504808 L7.02938078,18.2057428 C7.02938078,18.4326069 7.11083406,18.6280716 7.27223434,18.7898195 C7.43490916,18.9515674 7.62991037,19.0336 7.85851251,19.0336 L16.1425303,19.0336 C16.3711324,19.0336 16.5668288,18.9515674 16.7279974,18.7898195 C16.8909039,18.6280716 16.9713144,18.4326069 16.9713144,18.2056269 L16.970851,18.2056269 L16.9709668,18.2055111 Z M10.3434745,3.30964279 L13.6565255,3.30964279 C14.3425636,3.30964279 14.9286101,3.5509901 15.4140854,4.0361179 C15.8992133,4.52136157 16.1420668,5.10555416 16.1420668,5.79112886 L16.1420668,6.61898606 L19.4555812,6.61898606 C19.6840675,6.61898606 19.8798798,6.70113453 20.0410483,6.86044924 C20.2036073,7.02451442 20.2843654,7.2176618 20.2843654,7.44695914 C20.2843654,7.67637233 20.2036073,7.86940383 20.0410483,8.03358489 C19.8798798,8.19289961 19.6841834,8.27493221 19.4555812,8.27493222 L18.6271447,8.27493222 L18.6271447,18.2056269 C18.6271447,18.8910857 18.3845229,19.4752783 17.8993951,19.9604061 C17.4139197,20.4456498 16.8276415,20.6894303 16.1420668,20.6894303 L7.85816491,20.6894303 C7.17189504,20.6894303 6.58631205,20.4456498 6.10083667,19.9604061 C5.61536127,19.4752783 5.37285531,18.8910857 5.37285529,18.2056269 L5.37285529,8.27481634 L4.54441876,8.27481634 C4.31593249,8.27481634 4.12116301,8.19278375 3.9584882,8.03346903 C3.79685616,7.86940383 3.71563462,7.67625647 3.71563462,7.44695914 C3.71563462,7.2176618 3.7967403,7.0246303 3.9584882,6.86044924 C4.12116301,6.70113452 4.3159325,6.61898605 4.54441876,6.61898606 L7.85816491,6.61898606 L7.85816491,5.79112885 C7.85816491,5.10555418 8.10078675,4.52136158 8.58614627,4.03623378 C9.07138995,3.5509901 9.65685706,3.30964279 10.3434745,3.30964279 Z" id="Shape" fill-rule="nonzero"></path>
            </g>
        </g>
    </g>
</svg>